<?xml version="1.0" encoding="utf-8"?>
<!-- Generator: Adobe Illustrator 14.0.0, SVG Export Plug-In . SVG Version: 6.00 Build 43363)  -->
<!DOCTYPE svg PUBLIC "-//W3C//DTD SVG 1.1//EN" "http://www.w3.org/Graphics/SVG/1.1/DTD/svg11.dtd">
<svg version="1.1" id="Layer_1" xmlns="http://www.w3.org/2000/svg" xmlns:xlink="http://www.w3.org/1999/xlink" x="0px" y="0px"
	 width="25px" height="25px" viewBox="0 0 25 25" enable-background="new 0 0 25 25" xml:space="preserve">
<path fill="#B8DD00" d="M25-12.193C25-5.46,19.402,0,12.5,0l0,0C5.597,0,0-5.46,0-12.193v-0.613C0-19.541,5.597-25,12.5-25l0,0
	C19.402-25,25-19.541,25-12.807V-12.193z"/>
<path fill="#EA210C" d="M25,12.807C25,19.54,19.402,25,12.5,25l0,0C5.597,25,0,19.54,0,12.807v-0.613C0,5.459,5.597,0,12.5,0l0,0
	C19.402,0,25,5.459,25,12.193V12.807z"/>
<polygon id="check-mark-icon" fill="#FFFFFF" points="16.643,-16.637 10.862,-10.854 8.356,-13.359 6.5,-11.502 10.862,-7.14 
	18.5,-14.78 "/>
<polygon id="x-mark-icon" fill="#FFFFFF" points="17,15.426 14.072,12.499 16.999,9.572 15.425,8 12.5,10.927 9.573,8.001 8,9.572 
	10.927,12.499 8,15.427 9.572,17 12.5,14.072 15.428,16.999 "/>
</svg>
