<?xml version="1.0" encoding="utf-8"?>
<!-- Generator: Adobe Illustrator 14.0.0, SVG Export Plug-In . SVG Version: 6.00 Build 43363)  -->
<!DOCTYPE svg PUBLIC "-//W3C//DTD SVG 1.1//EN" "http://www.w3.org/Graphics/SVG/1.1/DTD/svg11.dtd">
<svg version="1.1" id="Layer_1" xmlns="http://www.w3.org/2000/svg" xmlns:xlink="http://www.w3.org/1999/xlink" x="0px" y="0px"
	 width="25px" height="25px" viewBox="0 0 25 25" enable-background="new 0 0 25 25" xml:space="preserve">
<path fill="#B8DD00" d="M25,12.807C25,19.54,19.402,25,12.5,25l0,0C5.597,25,0,19.54,0,12.807v-0.613C0,5.459,5.597,0,12.5,0l0,0
	C19.402,0,25,5.459,25,12.193V12.807z"/>
<path fill="#EA210C" d="M25,37.807C25,44.54,19.402,50,12.5,50l0,0C5.597,50,0,44.54,0,37.807v-0.613C0,30.459,5.597,25,12.5,25l0,0
	C19.402,25,25,30.459,25,37.193V37.807z"/>
<polygon id="check-mark-icon" fill="#FFFFFF" points="16.643,8.363 10.862,14.146 8.356,11.641 6.5,13.498 10.862,17.86 18.5,10.22 
	"/>
<polygon id="x-mark-icon" fill="#FFFFFF" points="17,40.426 14.072,37.499 16.999,34.572 15.425,33 12.5,35.927 9.573,33.001 
	8,34.572 10.927,37.499 8,40.427 9.572,42 12.5,39.072 15.428,41.999 "/>
</svg>
